<svg xmlns="http://www.w3.org/2000/svg" xmlns:xlink="http://www.w3.org/1999/xlink" width="500" zoomAndPan="magnify" viewBox="0 0 375 374.999991" height="500" preserveAspectRatio="xMidYMid meet" version="1.0"><defs><g/><clipPath id="fc14deb17f"><path d="M 26.25 0 L 348.75 0 C 355.710938 0 362.390625 2.765625 367.3125 7.6875 C 372.234375 12.609375 375 19.289062 375 26.25 L 375 348.75 C 375 355.710938 372.234375 362.390625 367.3125 367.3125 C 362.390625 372.234375 355.710938 375 348.75 375 L 26.25 375 C 19.289062 375 12.609375 372.234375 7.6875 367.3125 C 2.765625 362.390625 0 355.710938 0 348.75 L 0 26.25 C 0 19.289062 2.765625 12.609375 7.6875 7.6875 C 12.609375 2.765625 19.289062 0 26.25 0 Z M 26.25 0 " clip-rule="nonzero"/></clipPath><clipPath id="ad28892e9f"><path d="M 0 0 L 375 0 L 375 375 L 0 375 Z M 0 0 " clip-rule="nonzero"/></clipPath><clipPath id="51ea0634d1"><path d="M 26.25 0 L 348.75 0 C 355.710938 0 362.390625 2.765625 367.3125 7.6875 C 372.234375 12.609375 375 19.289062 375 26.25 L 375 348.75 C 375 355.710938 372.234375 362.390625 367.3125 367.3125 C 362.390625 372.234375 355.710938 375 348.75 375 L 26.25 375 C 19.289062 375 12.609375 372.234375 7.6875 367.3125 C 2.765625 362.390625 0 355.710938 0 348.75 L 0 26.25 C 0 19.289062 2.765625 12.609375 7.6875 7.6875 C 12.609375 2.765625 19.289062 0 26.25 0 Z M 26.25 0 " clip-rule="nonzero"/></clipPath><clipPath id="12d8b605e9"><rect x="0" width="375" y="0" height="375"/></clipPath></defs><rect x="-37.5" width="450" fill="#ffffff" y="-37.499999" height="449.999989" fill-opacity="1"/><rect x="-37.5" width="450" fill="#ffffff" y="-37.499999" height="449.999989" fill-opacity="1"/><g clip-path="url(#fc14deb17f)"><g transform="matrix(1, 0, 0, 1, 0, 0)"><g clip-path="url(#12d8b605e9)"><g clip-path="url(#ad28892e9f)"><g clip-path="url(#51ea0634d1)"><rect x="-82.5" width="540" fill="#2d2e31" height="539.999987" y="-82.499998" fill-opacity="1"/></g></g></g></g></g><g fill="#e2b715" fill-opacity="1"><g transform="translate(71.312637, 235.881439)"><g><path d="M 109.59375 0 L 94.4375 0 L 94.4375 -69.171875 C 94.4375 -73.703125 93.398438 -77.425781 91.328125 -80.34375 C 89.253906 -83.257812 85.953125 -84.71875 81.421875 -84.71875 C 77.140625 -84.71875 73.671875 -83.128906 71.015625 -79.953125 C 68.359375 -76.785156 67.03125 -71.894531 67.03125 -65.28125 L 67.03125 0 L 51.875 0 L 51.875 -69.953125 C 51.875 -74.222656 50.707031 -77.75 48.375 -80.53125 C 46.050781 -83.320312 42.945312 -84.71875 39.0625 -84.71875 C 34.394531 -84.71875 30.796875 -83.03125 28.265625 -79.65625 C 25.742188 -76.289062 24.484375 -71.890625 24.484375 -66.453125 L 24.484375 0 L 9.328125 0 L 9.328125 -96.375 L 24.484375 -96.375 L 24.484375 -85.890625 L 26.8125 -85.890625 C 28.5 -90.421875 30.960938 -93.753906 34.203125 -95.890625 C 37.441406 -98.023438 41.257812 -99.09375 45.65625 -99.09375 C 50.320312 -99.09375 54.175781 -97.863281 57.21875 -95.40625 C 60.269531 -92.945312 62.378906 -89.773438 63.546875 -85.890625 L 65.875 -85.890625 C 70.28125 -94.691406 77.273438 -99.09375 86.859375 -99.09375 C 94.109375 -99.09375 99.707031 -96.789062 103.65625 -92.1875 C 107.613281 -87.59375 109.59375 -81.609375 109.59375 -74.234375 Z M 109.59375 0 "/></g></g></g><g fill="#e2b715" fill-opacity="1"><g transform="translate(190.230156, 235.881439)"><g><path d="M 28.5625 38.859375 L 13.40625 38.859375 L 13.40625 -96.375 L 28.5625 -96.375 L 28.5625 -81.21875 L 30.890625 -81.21875 C 34.265625 -87.050781 38.929688 -91.488281 44.890625 -94.53125 C 50.847656 -97.570312 57.320312 -99.09375 64.3125 -99.09375 C 70.269531 -99.09375 75.90625 -97.992188 81.21875 -95.796875 C 86.53125 -93.597656 91.226562 -90.425781 95.3125 -86.28125 C 99.394531 -82.132812 102.632812 -77.015625 105.03125 -70.921875 C 107.425781 -64.835938 108.625 -57.90625 108.625 -50.125 L 108.625 -46.25 C 108.625 -38.34375 107.457031 -31.34375 105.125 -25.25 C 102.789062 -19.164062 99.582031 -14.050781 95.5 -9.90625 C 91.425781 -5.757812 86.664062 -2.617188 81.21875 -0.484375 C 75.78125 1.648438 70.015625 2.71875 63.921875 2.71875 C 60.816406 2.71875 57.644531 2.359375 54.40625 1.640625 C 51.164062 0.929688 48.085938 -0.164062 45.171875 -1.65625 C 42.265625 -3.144531 39.578125 -4.957031 37.109375 -7.09375 C 34.648438 -9.226562 32.578125 -11.785156 30.890625 -14.765625 L 28.5625 -14.765625 Z M 60.8125 -11.65625 C 65.476562 -11.65625 69.753906 -12.460938 73.640625 -14.078125 C 77.523438 -15.703125 80.925781 -18.003906 83.84375 -20.984375 C 86.757812 -23.960938 89.023438 -27.585938 90.640625 -31.859375 C 92.265625 -36.140625 93.078125 -40.9375 93.078125 -46.25 L 93.078125 -50.125 C 93.078125 -55.3125 92.265625 -60.007812 90.640625 -64.21875 C 89.023438 -68.425781 86.757812 -72.050781 83.84375 -75.09375 C 80.925781 -78.144531 77.492188 -80.507812 73.546875 -82.1875 C 69.597656 -83.875 65.351562 -84.71875 60.8125 -84.71875 C 56.28125 -84.71875 52.070312 -83.84375 48.1875 -82.09375 C 44.300781 -80.34375 40.898438 -77.910156 37.984375 -74.796875 C 35.066406 -71.691406 32.765625 -67.96875 31.078125 -63.625 C 29.398438 -59.289062 28.5625 -54.535156 28.5625 -49.359375 L 28.5625 -47.03125 C 28.5625 -41.71875 29.398438 -36.890625 31.078125 -32.546875 C 32.765625 -28.203125 35.066406 -24.472656 37.984375 -21.359375 C 40.898438 -18.253906 44.300781 -15.859375 48.1875 -14.171875 C 52.070312 -12.492188 56.28125 -11.65625 60.8125 -11.65625 Z M 60.8125 -11.65625 "/></g></g></g><g fill="#ffffff" fill-opacity="1"><g transform="translate(98.166956, 273.98301)"><g><path d="M 8.375 -15.875 L 24.46875 -15.875 L 24.46875 -12.015625 L 8.375 -12.015625 Z M 8.375 -15.875 "/></g></g></g><g fill="#ffffff" fill-opacity="1"><g transform="translate(131.00693, 273.98301)"><g><path d="M 8.375 -15.875 L 24.46875 -15.875 L 24.46875 -12.015625 L 8.375 -12.015625 Z M 8.375 -15.875 "/></g></g></g><g fill="#ffffff" fill-opacity="1"><g transform="translate(163.850545, 273.98301)"><g/></g></g><g fill="#ffffff" fill-opacity="1"><g transform="translate(183.523336, 128.07717)"><g><path d="M 12.65625 -18.78125 C 12.65625 -19.8125 13.019531 -20.691406 13.75 -21.421875 C 14.488281 -22.160156 15.378906 -22.53125 16.421875 -22.53125 C 17.453125 -22.53125 18.332031 -22.160156 19.0625 -21.421875 C 19.800781 -20.691406 20.171875 -19.8125 20.171875 -18.78125 C 20.171875 -17.738281 19.800781 -16.851562 19.0625 -16.125 C 18.332031 -15.394531 17.453125 -15.03125 16.421875 -15.03125 C 15.378906 -15.03125 14.488281 -15.394531 13.75 -16.125 C 13.019531 -16.851562 12.65625 -17.738281 12.65625 -18.78125 Z M 12.65625 -18.78125 "/></g></g></g><g fill="#ffffff" fill-opacity="1"><g transform="translate(216.363311, 128.07717)"><g><path d="M 8.375 -15.875 L 24.46875 -15.875 L 24.46875 -12.015625 L 8.375 -12.015625 Z M 8.375 -15.875 "/></g></g></g><g fill="#ffffff" fill-opacity="1"><g transform="translate(249.203286, 128.07717)"><g><path d="M 8.375 -15.875 L 24.46875 -15.875 L 24.46875 -12.015625 L 8.375 -12.015625 Z M 8.375 -15.875 "/></g></g></g><g fill="#ffffff" fill-opacity="1"><g transform="translate(282.043261, 128.07717)"><g><path d="M 12.65625 -18.78125 C 12.65625 -19.8125 13.019531 -20.691406 13.75 -21.421875 C 14.488281 -22.160156 15.378906 -22.53125 16.421875 -22.53125 C 17.453125 -22.53125 18.332031 -22.160156 19.0625 -21.421875 C 19.800781 -20.691406 20.171875 -19.8125 20.171875 -18.78125 C 20.171875 -17.738281 19.800781 -16.851562 19.0625 -16.125 C 18.332031 -15.394531 17.453125 -15.03125 16.421875 -15.03125 C 15.378906 -15.03125 14.488281 -15.394531 13.75 -16.125 C 13.019531 -16.851562 12.65625 -17.738281 12.65625 -18.78125 Z M 12.65625 -18.78125 "/></g></g></g></svg>